<svg id="mklogo" xmlns="http://www.w3.org/2000/svg" viewBox="0 0 981 741"><defs><style>.cls-1,.cls-2,.cls-3{stroke:#fff;stroke-miterlimit:10;}.cls-2{fill:#9e3a3a;}.cls-3{fill:#2f244b;}</style></defs><path id="blackk" class="cls-1" d="M774.79,844.62a8.9,8.9,0,0,1-8.07-5.09L636.33,561.32l-78.86,276.9a8.87,8.87,0,0,1-8.56,6.4H454.65a9,9,0,0,1-7.07-3.44,8.68,8.68,0,0,1-1.51-7.63L604.36,260.27a8.65,8.65,0,0,1,2.54-4.13L752.74,122.9a9,9,0,0,1,11.4-.57,8.69,8.69,0,0,1,2.58,11L701.29,260.52l-31,107,305.17-248.5a9,9,0,0,1,11.83.44,8.68,8.68,0,0,1,.91,11.64l-270.7,350L875.39,828.76a8.65,8.65,0,0,1-.56,8.21,9,9,0,0,1-7.21,4.14l-92.49,3.5Z" transform="translate(-9.5 -104.12)"/><polygon id="colork" class="cls-2" points="445.15 731.73 603.44 158.45 749.28 25.21 683.48 153.19 644.35 288.18 971.61 21.7 697.71 375.84 857.78 728.23 765.29 731.73 624.78 431.94 539.41 731.73 445.15 731.73"/><path id="blackm" class="cls-1" d="M326.59,842A8.88,8.88,0,0,1,318,830.61L429.4,445.29,317.33,575.9a8.87,8.87,0,0,1-6.75,3.1,9.11,9.11,0,0,1-2.42-.33,8.88,8.88,0,0,1-6.36-7.15l-21-131.26L148.27,835.89a8.89,8.89,0,0,1-8.43,6.06H18.89a8.88,8.88,0,0,1-8.25-12.18L298.77,110.2a8.89,8.89,0,0,1,8.25-5.58,9.77,9.77,0,0,1,1.08.06,8.88,8.88,0,0,1,7.73,7.6L354,387.59l140.1-164.36a9,9,0,0,1,2.93-2.26L738.94,105.49a8.89,8.89,0,0,1,9.85,14.56L599.49,256.91,440.1,835.43a8.89,8.89,0,0,1-8.58,6.52Z" transform="translate(-9.5 -104.12)"/><polygon id="colorm" class="cls-3" points="9.39 728.95 297.52 9.38 338.43 304.32 491.39 124.87 733.28 9.38 582.1 147.97 422.02 728.95 317.09 728.95 439.81 304.32 301.08 466 274.4 298.99 130.34 728.95 9.39 728.95"/></svg>