<?xml version="1.0" encoding="utf-8"?>
<!-- Generator: Adobe Illustrator 24.1.1, SVG Export Plug-In . SVG Version: 6.00 Build 0)  -->
<svg version="1.1" id="settingsicon" xmlns="http://www.w3.org/2000/svg" xmlns:xlink="http://www.w3.org/1999/xlink" x="0px"
	 y="0px" viewBox="0 0 1000 1000" style="enable-background:new 0 0 1000 1000;" xml:space="preserve">
<style type="text/css">
	.st0{fill:#FFFFFF;}
</style>
<path id="settings" class="st0" d="M881.6,438.7h-46.8c0,0-18.6,1.6-35.8-29.9v0c-5.9-19.5-13.7-38.2-23.2-55.9l0.1,0.1
	c-10.1-34.4,4.2-46.4,4.2-46.4l33.1-33.1c0,0,14-22.6-1.6-38.2l-46.9-46.9c-15.6-15.6-38.2-1.6-38.2-1.6l-33.1,33.1
	c0,0-12,14.3-46.4,4.2l0.1,0.1c-17.7-9.5-36.4-17.3-55.9-23.2h0c-31.4-17.1-29.9-35.8-29.9-35.8v-46.8c0,0-6-25.9-28.1-25.9h-66.3
	c-22.1,0-28.1,25.9-28.1,25.9v46.8c0,0,1.6,18.6-29.9,35.8h0c-19.5,5.9-38.2,13.7-55.9,23.2l0.1-0.1c-34.4,10.1-46.4-4.2-46.4-4.2
	l-33.1-33.1c0,0-22.6-14.1-38.2,1.6l-46.9,46.9c-15.6,15.6-1.6,38.2-1.6,38.2l33.1,33.1c0,0,14.3,12,4.2,46.4l0.1-0.1
	c-9.5,17.7-17.3,36.4-23.2,55.9v0c-17.1,31.4-35.8,29.9-35.8,29.9h-46.8c0,0-25.9,6-25.9,28.1v66.3c0,22.1,25.9,28.1,25.9,28.1h46.8
	c0,0,18.6-1.6,35.8,29.9v0c5.9,19.5,13.7,38.2,23.2,55.9l-0.1-0.1c10.1,34.3-4.2,46.4-4.2,46.4l-33.1,33.1c0,0-14.1,22.6,1.6,38.2
	l46.9,46.9c15.6,15.6,38.2,1.6,38.2,1.6l33.1-33.1c0,0,12-14.3,46.4-4.2l-0.1-0.1c17.7,9.5,36.4,17.3,55.9,23.2h0
	c31.4,17.1,29.9,35.8,29.9,35.8v46.8c0,0,6,25.9,28.1,25.9h66.3c22.1,0,28.1-25.9,28.1-25.9v-46.8c0,0-1.6-18.6,29.9-35.8h0
	c19.5-5.9,38.2-13.7,55.9-23.2l-0.1,0.1c34.3-10.1,46.4,4.2,46.4,4.2l33.1,33.1c0,0,22.6,14,38.2-1.6l46.9-46.9
	c15.6-15.6,1.6-38.2,1.6-38.2L780,693.4c0,0-14.3-12-4.2-46.4l-0.1,0.1c9.5-17.7,17.3-36.4,23.2-55.9v0
	c17.1-31.4,35.8-29.9,35.8-29.9h46.8c0,0,25.9-6,25.9-28.1v-66.3C907.5,444.7,881.6,438.7,881.6,438.7z M500,671
	c-90.3,0-163.5-76.6-163.5-171S409.7,329,500,329s163.5,76.6,163.5,171S590.3,671,500,671z"/>
</svg>
